name ./resultDataOpenSim/trcMotMarkerGrf/sub10/grf-03-06.mot
datacolumns 19
datarows 17
range 0.50400000 0.56800000
endheader

                time	     ground_force_vx	     ground_force_vy	     ground_force_vz	     ground_force_px	     ground_force_py	     ground_force_pz	   l_ground_force_vx	   l_ground_force_vy	   l_ground_force_vz	   l_ground_force_px	   l_ground_force_py	   l_ground_force_pz	     ground_torque_x	     ground_torque_y	     ground_torque_z	   l_ground_torque_x	   l_ground_torque_y	   l_ground_torque_z	
          0.50400000	         37.97325195	        438.57249435	        -15.13745366	         -0.88146571	          0.00000000	         -0.04165627	          0.00000000	          0.00000000	          0.00000000	          0.00000000	          0.00000000	          0.00000000	          0.00000000	          2.84140702	          0.00000000	          0.00000000	          0.00000000	          0.00000000	
          0.50800000	         39.82735970	        441.64158534	        -14.56387995	         -0.87930404	          0.00000000	         -0.04141408	          0.00000000	          0.00000000	          0.00000000	          0.00000000	          0.00000000	          0.00000000	          0.00000000	          2.93210798	          0.00000000	          0.00000000	          0.00000000	          0.00000000	
          0.51200000	         41.47454496	        445.10292073	        -14.35378046	         -0.87705564	          0.00000000	         -0.04116713	          0.00000000	          0.00000000	          0.00000000	          0.00000000	          0.00000000	          0.00000000	          0.00000000	          3.00956140	          0.00000000	          0.00000000	          0.00000000	          0.00000000	
          0.51600000	         43.00768044	        448.96716971	        -14.63900920	         -0.87473053	          0.00000000	         -0.04089945	          0.00000000	          0.00000000	          0.00000000	          0.00000000	          0.00000000	          0.00000000	          0.00000000	          3.07069874	          0.00000000	          0.00000000	          0.00000000	          0.00000000	
          0.52000000	         44.54211813	        453.27153127	        -15.44735637	         -0.87236337	          0.00000000	         -0.04059543	          0.00000000	          0.00000000	          0.00000000	          0.00000000	          0.00000000	          0.00000000	          0.00000000	          3.11559230	          0.00000000	          0.00000000	          0.00000000	          0.00000000	
          0.52400000	         46.17203415	        458.07767035	        -16.70141458	         -0.86999261	          0.00000000	         -0.04024801	          0.00000000	          0.00000000	          0.00000000	          0.00000000	          0.00000000	          0.00000000	          0.00000000	          3.14767748	          0.00000000	          0.00000000	          0.00000000	          0.00000000	
          0.52800000	         47.93736775	        463.46014619	        -18.23585797	         -0.86764281	          0.00000000	         -0.03986528	          0.00000000	          0.00000000	          0.00000000	          0.00000000	          0.00000000	          0.00000000	          0.00000000	          3.17304989	          0.00000000	          0.00000000	          0.00000000	          0.00000000	
          0.53200000	         49.81038698	        469.49651493	        -19.83307635	         -0.86531754	          0.00000000	         -0.03946690	          0.00000000	          0.00000000	          0.00000000	          0.00000000	          0.00000000	          0.00000000	          0.00000000	          3.19897514	          0.00000000	          0.00000000	          0.00000000	          0.00000000	
          0.53600000	         51.70768299	        476.25579638	        -21.27242407	         -0.86300723	          0.00000000	         -0.03907914	          0.00000000	          0.00000000	          0.00000000	          0.00000000	          0.00000000	          0.00000000	          0.00000000	          3.23209719	          0.00000000	          0.00000000	          0.00000000	          0.00000000	
          0.54000000	         53.52422849	        483.78979778	        -22.38168365	         -0.86071239	          0.00000000	         -0.03872487	          0.00000000	          0.00000000	          0.00000000	          0.00000000	          0.00000000	          0.00000000	          0.00000000	          3.27689448	          0.00000000	          0.00000000	          0.00000000	          0.00000000	
          0.54400000	         55.17501515	        492.13189077	        -23.07737297	         -0.85845087	          0.00000000	         -0.03841759	          0.00000000	          0.00000000	          0.00000000	          0.00000000	          0.00000000	          0.00000000	          0.00000000	          3.33471365	          0.00000000	          0.00000000	          0.00000000	          0.00000000	
          0.54800000	         56.62966564	        501.29686319	        -23.38245227	         -0.85625285	          0.00000000	         -0.03816126	          0.00000000	          0.00000000	          0.00000000	          0.00000000	          0.00000000	          0.00000000	          0.00000000	          3.40341514	          0.00000000	          0.00000000	          0.00000000	          0.00000000	
          0.55200000	         57.93285916	        511.28136882	        -23.41789008	         -0.85415268	          0.00000000	         -0.03794964	          0.00000000	          0.00000000	          0.00000000	          0.00000000	          0.00000000	          0.00000000	          0.00000000	          3.47751555	          0.00000000	          0.00000000	          0.00000000	          0.00000000	
          0.55600000	         59.20524955	        522.06547795	        -23.37262170	         -0.85217742	          0.00000000	         -0.03776850	          0.00000000	          0.00000000	          0.00000000	          0.00000000	          0.00000000	          0.00000000	          0.00000000	          3.54877604	          0.00000000	          0.00000000	          0.00000000	          0.00000000	
          0.56000000	         60.62195239	        533.61375528	        -23.45995235	         -0.85034620	          0.00000000	         -0.03760466	          0.00000000	          0.00000000	          0.00000000	          0.00000000	          0.00000000	          0.00000000	          0.00000000	          3.60732089	          0.00000000	          0.00000000	          0.00000000	          0.00000000	
          0.56400000	         62.37587588	        545.87646098	        -23.87096634	         -0.84868193	          0.00000000	         -0.03745269	          0.00000000	          0.00000000	          0.00000000	          0.00000000	          0.00000000	          0.00000000	          0.00000000	          3.64336289	          0.00000000	          0.00000000	          0.00000000	          0.00000000	
          0.56800000	         64.63971264	        558.78761022	        -24.73396085	         -0.84721060	          0.00000000	         -0.03731414	          0.00000000	          0.00000000	          0.00000000	          0.00000000	          0.00000000	          0.00000000	          0.00000000	          3.64939393	          0.00000000	          0.00000000	          0.00000000	          0.00000000	
